<svg height="26" viewBox="0 0 30 26" width="30" xmlns="http://www.w3.org/2000/svg"><path d="m154.600281 39.0035564c-.820505 1.2646554-1.846137 2.390989-3.020952 3.29996.018648.2766434.018648.5532868.018648.8299301 0 8.4376223-6.060552 18.1596603-17.137375 18.1596603-3.412557 0-6.582692-1.0472928-9.249334-2.8652348.484844.0592807.95104.079041 1.454532.079041 2.815826 0 5.407877-1.0077723 7.477788-2.7269131-2.647995-.0592807-4.867089-1.896983-5.631651-4.4262937.372957.0592807.745914.0988012 1.137519.0988012.540788 0 1.081576-.079041 1.585068-.2173626-2.759882-.5928072-4.829794-3.1616384-4.829794-6.263996v-.079041c.801858.4742458 1.73425.7706494 2.722586.8101699-1.622363-1.1460939-2.68529-3.1023577-2.68529-5.3155045 0-1.1856144.298365-2.2724276.820505-3.2209191 2.965009 3.873007 7.421845 6.4023177 12.419469 6.678961-.093239-.4742457-.149183-.9682517-.149183-1.4622577 0-3.5173227 2.685291-6.3825574 6.023256-6.3825574 1.73425 0 3.30067.7706493 4.400893 2.0155444 1.361293-.2766433 2.666643-.8101698 3.82281-1.5412986-.447549 1.4820179-1.398589 2.726913-2.647995 3.5173226 1.21211-.1383217 2.386925-.494006 3.4685-.988012z" fill="#fff" fill-rule="evenodd" transform="translate(-125 -36)"/></svg>